<svg id="Layer_1" data-name="Layer 1" xmlns="http://www.w3.org/2000/svg" xmlns:xlink="http://www.w3.org/1999/xlink" viewBox="0 0 540.58 303.05"><defs><style>.cls-1{fill:none;clip-rule:evenodd;}.cls-2{fill:#afb662;}.cls-15,.cls-3{fill:#a8ad5b;}.cls-10,.cls-12,.cls-13,.cls-3,.cls-4,.cls-5,.cls-7,.cls-8{fill-rule:evenodd;}.cls-4{fill:#ececec;}.cls-5{fill:#fff;}.cls-6{clip-path:url(#clip-path);}.cls-7{fill:#787d32;}.cls-8{fill:#959b4b;}.cls-9{fill:#8a9143;}.cls-10{fill:#898e3f;}.cls-11{fill:#9da452;}.cls-12{fill:#a1a751;}.cls-13{fill:#c2c671;}.cls-14{fill:#b6bd68;}</style><clipPath id="clip-path"><path class="cls-1" d="M267.8,67.23a34.19,34.19,0,1,1-31.67,36.53A34.2,34.2,0,0,1,267.8,67.23Z"/></clipPath></defs><title>Artboard 16 copy 2</title><path class="cls-2" d="M157.22,102.5a2,2,0,1,1-2-2A2,2,0,0,1,157.22,102.5Z"/><path class="cls-3" d="M267.65,65a36.38,36.38,0,1,1-33.71,38.87A36.38,36.38,0,0,1,267.65,65Z"/><path class="cls-4" d="M267.72,66.09A35.32,35.32,0,1,1,235,103.84,35.34,35.34,0,0,1,267.72,66.09Z"/><path class="cls-5" d="M267.8,67.23a34.19,34.19,0,1,1-31.67,36.53A34.18,34.18,0,0,1,267.8,67.23Z"/><g class="cls-6"><path class="cls-7" d="M269.64,84.57c.13,1.11-.38,2.2-.51,5.64-.52-1.74-.46-4.63.51-5.64Z"/><path class="cls-7" d="M266.52,87.91c.85-.28.8,2.14,2.42,2.77-1,.47-2.45-.81-2.42-2.77Z"/><path class="cls-7" d="M270.05,91.75a5.89,5.89,0,0,1-2.43,3.66c1-1.62,1.56-3.65,2.43-3.66Z"/><path class="cls-7" d="M270.42,96.63c-.14,1.09-2.07,3.57-3.78,5.22.89-1.69,2.89-5.12,3.78-5.22Z"/><path class="cls-7" d="M263.87,97.22c-.16,1.09.37,4,2.77,4.63-2.13-1.64-1.88-4.55-2.77-4.63Z"/><path class="cls-7" d="M262.92,104.57c.7,0,1.54,2.16,4,4-1.37-.05-3.83-2.2-4-4Z"/><path class="cls-7" d="M269.27,108.73c-.54,1.06-.25,3-1.51,6.49a10.78,10.78,0,0,0,1.51-6.49Z"/><path class="cls-7" d="M265.79,111.34c1.1.61,1.38,1.91,1.84,4-1.16-1.49-2.43-3.27-1.84-4Z"/><path class="cls-7" d="M268.76,108.65c-.47.61-.4,1-1.5,2.81.89-.88,1.62-1.82,1.5-2.81Z"/><path class="cls-7" d="M265.9,116.54c.66.2,1,1.6,2.7,2.7a3.21,3.21,0,0,1-2.7-2.7Z"/><path class="cls-7" d="M266.52,120.74c.66.19,1,1.58,2.69,2.69a3.2,3.2,0,0,1-2.69-2.69Z"/><path class="cls-7" d="M273.21,120.17c-1.2,1.41-2,5.37-2.27,8.24,1.16-2.53,3.08-7.68,2.27-8.24Z"/><path class="cls-8" d="M275.06,79.46c.18,1-2.07,3.87-3.82,6.5.4-1.89,2.84-6.73,3.82-6.5Z"/><path class="cls-8" d="M274.08,83.89c-.35,1-.73,1.82-2.77,2.07,1.17-1.37,2.24-2.37,2.77-2.07Z"/><path class="cls-8" d="M271.62,80.13c.51.71.38,2.71-.46,5.88-.25-1.78-.58-5.5.46-5.88Z"/><path class="cls-8" d="M270.12,82.58c.51.71.62,2.35.16,4.92-.24-1.78-.83-4-.16-4.92Z"/><path class="cls-8" d="M271.58,86.72c-.74.84-.66,1.48-2.38,3.94,1.35-1.16,2.47-2.46,2.38-3.94Z"/><path class="cls-8" d="M268,82.6c.55.61.11,3.87,1,8-1.05-1.33-1.88-6.05-1-8Z"/><path class="cls-8" d="M273.61,87.38c-.71,0-2.2,1.66-4.41,3.28,1.4-.16,4.46-1.33,4.41-3.28Z"/><path class="cls-8" d="M271.51,91.18c0-.79-1.85.59-2.51-.56.48,1.35,1.11,1.43,2.51.56Z"/><path class="cls-8" d="M266.52,90.12a9.29,9.29,0,0,0,.81,5.75c-.12-2.49,0-5.88-.81-5.75Z"/><path class="cls-8" d="M264.9,89.69c-.39,1.83.67,5.42,2.24,6.58-.93-2.28-1.41-6.52-2.24-6.58Z"/><path class="cls-8" d="M272.53,92.52c-.39,1-3.37,3.7-5.29,4.59,1.21-1.31,4.49-4.88,5.29-4.59Z"/><path class="cls-8" d="M263.7,93.65c-.14,1.74,1.57,5.71,2.82,7.53-.45-2.35-2-7.85-2.82-7.53Z"/><path class="cls-8" d="M262.69,100.82c.59,1.4,1.73,1.36,3.66,1.83-1.39-1.43-3-2.66-3.66-1.83Z"/><path class="cls-8" d="M271.08,98.71a8.39,8.39,0,0,1-4.42,3.19c1.58-1.55,4.07-4,4.42-3.19Z"/><path class="cls-8" d="M269.83,100.14c-.83.59-1.21,2.86-3.26,4.79a7.78,7.78,0,0,0,3.26-4.79Z"/><path class="cls-8" d="M265.2,104c.51.52.38,2.06,1.58,4a4.43,4.43,0,0,1-1.58-4Z"/><path class="cls-8" d="M269.37,103.9c-.79.64-.49,1.95-2.47,4.19,1.53-.83,2.73-3,2.47-4.19Z"/><path class="cls-8" d="M272.3,102.77c-1.14.11-2.44,2.73-5.13,6.37,1.76-.85,5-4.52,5.13-6.37Z"/><path class="cls-8" d="M263.5,108.72c.93-.52,1.88-1,3.33.62-1.65,0-3.21.1-3.33-.62Z"/><path class="cls-8" d="M272.07,109.28c-.88.2-3.4,2.52-4,6.44,1.43-3.93,3.87-5.06,4-6.44Z"/><path class="cls-8" d="M262,113.18a4.42,4.42,0,0,1,5.73,2.6c-2.24-2.56-5.43-1.36-5.73-2.6Z"/><path class="cls-8" d="M263.76,114.77a2.77,2.77,0,0,0,4.1,1.14c-2.26.41-3.39-1.71-4.1-1.14Z"/><path class="cls-8" d="M264.17,118.47c.68-.34,1.52,1.09,4.43,1.57-1.39.59-3.85-.07-4.43-1.57Z"/><path class="cls-8" d="M272.63,114.52c-.9.42-3.33,3.38-3.43,7.49,1-4.33,3.5-6.06,3.43-7.49Z"/><path class="cls-8" d="M269.18,115.47c-.22,1.4,0,1.87-.24,5.57.57-2.32,1.07-4.53.24-5.57Z"/><path class="cls-8" d="M265.14,123.76c1.17-1,2.32-.59,4-.33-1.78.78-3.94,1.29-4,.33Z"/><path class="cls-8" d="M266.87,125.87c.51-.5,1.3,0,2.88-1-.77,1.12-2.36,1.67-2.88,1Z"/><path class="cls-8" d="M271.65,120.63c-.2.91-1.08,1-2,3.32.17-1.76,1.27-3.6,2-3.32Z"/><path class="cls-8" d="M272,119.69a12.48,12.48,0,0,0-2.27,5.12c1.19-2.1,2.71-4.71,2.27-5.12Z"/><path class="cls-8" d="M265.67,129.19c1.59-1,3-1.1,5.27-.75-2.42.69-5.2,1.72-5.27.75Z"/><path class="cls-8" d="M274.2,123.42c-1.46.66-2.08,2.48-3.25,5.15,1.81-1.79,3.72-4.12,3.25-5.15Z"/><path class="cls-9" d="M271,86s-6.38,10.61-4.53,22.09l0,.18c1.47,11.48,3.32,21.64,5.8,23.38,2.22,1.7.89,6.42.9,6.42l.68-.58s1.1-4.74-1.23-6.52c-2.27-1.59-4.19-11.56-5.58-23l0-.18c-1.78-11.12,4.2-21.62,4.21-21.65a.75.75,0,0,0,.26-.79c-.35,0-.48.24-.5.64Z"/><path class="cls-10" d="M283.58,83.72c-.23,1.11-.92,1.7-2,4.72.13-2,1-4.56,2-4.72Z"/><path class="cls-10" d="M280.34,84.29c.69.42,0,2.57,1,4.43-.87-.38-1.55-2.67-1-4.43Z"/><path class="cls-10" d="M281.78,90.56c-.45.83-1.11,1.46-2.83,1.41,1.17-.71,2.19-2.09,2.83-1.41Z"/><path class="cls-10" d="M280.63,95.29c-.42.88-2.55,1.61-4.27,1.76,1.14-.84,3.59-2.37,4.27-1.76Z"/><path class="cls-10" d="M275.71,90.66a7.53,7.53,0,0,0,.65,6.39c-1.06-3.16,0-5.62-.65-6.39Z"/><path class="cls-10" d="M272.88,96.6c.51.51.47,3.16,1.71,6.72-1-1.12-2.14-5-1.71-6.72Z"/><path class="cls-10" d="M276.26,105.39c-.7.53-1,2.48-3,4.69,1.24-.51,2.81-3.08,3-4.69Z"/><path class="cls-10" d="M273,105c.62,1.42.44,2.81.16,5.12-.41-2.28-.8-4.89-.16-5.12Z"/><path class="cls-10" d="M275.92,104.9c-.52.18-.6.62-1.9,1.37.9-.09,1.7-.38,1.9-1.37Z"/><path class="cls-10" d="M271.54,109.82c.43.7.23,2.2,1.17,4.58a6.48,6.48,0,0,1-1.17-4.58Z"/><path class="cls-10" d="M270.77,114.12c.42.69.23,2.2,1.17,4.57a6.46,6.46,0,0,1-1.17-4.57Z"/><path class="cls-10" d="M275.79,118.88c-1.29.33-3,3.27-4,5.69,1.58-1.38,4.47-4.55,4-5.69Z"/><path class="cls-3" d="M289,83.35c-.16,1.05-2.62,1.88-4.66,2.89.83-1.41,4-3.88,4.66-2.89Z"/><path class="cls-3" d="M287,86.6c-.57.67-1.06,1.08-2.63-.31,1.26-.32,2.33-.38,2.63.31Z"/><path class="cls-3" d="M286.3,81.24c.17,1.05-.51,2.76-2.05,5,.34-1.81,1.18-5.45,2.05-5Z"/><path class="cls-3" d="M284.5,82.29c.17,1-.24,2.62-1.31,4.59.34-1.8.56-4.26,1.31-4.59Z"/><path class="cls-3" d="M284.35,87.2c-.77.18-.91.81-2.86,1.71,1.31,0,2.5-.3,2.86-1.71Z"/><path class="cls-3" d="M282.94,80.61c.23,1-1.05,3.6-1.6,8.09-.36-2,.41-7,1.6-8.09Z"/><path class="cls-3" d="M285.64,89.4c-.53-.53-2.08-.23-4.15-.49,1.05,1,3.61,2.3,4.15.49Z"/><path class="cls-3" d="M283,91.2c.24-.71-1.52-.92-1.67-2.5,0,1.62.4,2.18,1.67,2.5Z"/><path class="cls-3" d="M279.7,86.3a11,11,0,0,0-1.09,5.87c.64-2.37,1.73-5.34,1.09-5.87Z"/><path class="cls-3" d="M278.64,84.64c-.82,1.35-1.09,5.45-.29,7.74,0-2.81.89-7,.29-7.74Z"/><path class="cls-3" d="M283.36,93.21c-.59.64-3.53.71-5.18,0,1.26-.24,4.68-.91,5.18,0Z"/><path class="cls-3" d="M276.94,90.75a9.81,9.81,0,0,0-.47,5.6c.36-2.49,1.16-5.24.47-5.6Z"/><path class="cls-3" d="M273.8,93c0,1.73.86,2.6,2.12,4.54-.59-2.4-1.4-4.78-2.12-4.54Z"/><path class="cls-3" d="M280.1,98.11c-1.06.64-2.26-.15-3.74-1,1.6-.18,3.7,0,3.74,1Z"/><path class="cls-3" d="M278.69,99.26c-.78-.12-1.22.41-3.28.53,1.29.5,2.68.69,3.28-.53Z"/><path class="cls-3" d="M274.7,97.83c.22.87-.31,2.17,0,4.88-.57-1.35-.57-4.06,0-4.88Z"/><path class="cls-3" d="M277.74,101.07c-.75,0-.93,1.38-3,1.85a2.38,2.38,0,0,0,3-1.85Z"/><path class="cls-3" d="M280.2,102.35c-.86-.8-2.57.55-5.58,1.74,1.52.61,4.94-.17,5.58-1.74Z"/><path class="cls-3" d="M272.08,100.82c.83.26,1.67.56,2.24,3.2-1.21-1.27-2.35-2.44-2.24-3.2Z"/><path class="cls-3" d="M278.13,108.08c-.68-.5-3.2-.38-4.76,2.71,2.17-2.45,4.27-1.55,4.76-2.71Z"/><path class="cls-3" d="M269.69,103.7c.95.38,3.48,3,3.4,6.87-.87-4.1-3.54-5.52-3.4-6.87Z"/><path class="cls-3" d="M270.51,106.53c0,1,.76,3.83,2.64,4.26-1.76-1.42-2-4.23-2.64-4.26Z"/><path class="cls-3" d="M269.73,110.21c.59.22.79,2.19,2.76,4.92a6.68,6.68,0,0,1-2.76-4.92Z"/><path class="cls-3" d="M277,113.28c-.77-.34-3.39.46-4.67,4.12,2-3.15,4.31-2.76,4.67-4.12Z"/><path class="cls-3" d="M274.23,111.42c-.56,1.12-.56,1.7-1.79,4.88,1.09-1.65,2.1-3.26,1.79-4.88Z"/><path class="cls-3" d="M268.89,115.78c1.14,0,1.85,1.29,3,2.87-1.53-.71-3.24-1.94-3-2.87Z"/><path class="cls-3" d="M269.53,119.06c.51-.06.94,1,2.38,1.36a1.86,1.86,0,0,1-2.38-1.36Z"/><path class="cls-3" d="M274.52,118.07c-.41.67-1.08.08-2.39,1.45.63-1.46,2-2.27,2.39-1.45Z"/><path class="cls-3" d="M275.06,117.49c-1.1.28-2,1.25-3.13,2.88,1.48-1,3.34-2.15,3.13-2.88Z"/><path class="cls-3" d="M267.69,121.13c1.44.37,2.49,1.35,4,3.47-2-1.28-4.26-2.53-4-3.47Z"/><path class="cls-3" d="M275.56,122.6c-1.25-.54-2.23.62-3.86,2.13,1.83-.2,3.9-.83,3.86-2.13Z"/><path class="cls-11" d="M284.18,86.13s-7.72,4.62-9.73,16.49l0,.19c-2.28,11.59-3.9,22.27-2.6,25.8,1.11,3.3.57,8.85.57,8.86h.68s.36-5.75-.8-9.2c-1.18-3.25.33-13.8,2.64-25.28l0-.2c1.95-11.5,9.35-16.33,9.37-16.35.22,0,.36-.11.42-.51-.28-.24-.43-.16-.55.19Z"/><path class="cls-10" d="M248.87,92.82c.51,1,1.54,1.3,3.57,3.74-.54-1.76-2.2-3.86-3.57-3.74Z"/><path class="cls-10" d="M253.32,92.47c-.86.57.52,2.32-.47,4.28,1.1-.59,1.58-2.83.47-4.28Z"/><path class="cls-10" d="M252.52,98.55c.77.64,1.76,1,4,.52-1.7-.33-3.31-1.31-4-.52Z"/><path class="cls-10" d="M254.93,102.53c.72.69,3.7.78,6,.46-1.68-.46-5.24-1.19-6-.46Z"/><path class="cls-10" d="M260.69,97a5.06,5.06,0,0,1,.28,6c.85-3.16-1-5.11-.28-6Z"/><path class="cls-10" d="M265.56,101.64c-.6.6-.07,3-1.07,6.55,1.11-1.28,1.94-5.12,1.07-6.55Z"/><path class="cls-10" d="M262.61,110.52c1,.3,1.86,2,4.86,3.47a7.13,7.13,0,0,1-4.86-3.47Z"/><path class="cls-10" d="M266.94,109.3c-.57,1.46-.08,2.67.72,4.69.14-2.18.2-4.66-.72-4.69Z"/><path class="cls-10" d="M263,110c.74,0,.91.4,2.81.73-1.22.16-2.35.11-2.81-.73Z"/><path class="cls-10" d="M269.75,113.28c-.43.75.09,2.06-.73,4.47,1-1.11,1.38-3.59.73-4.47Z"/><path class="cls-10" d="M271.56,117c-.43.74.09,2-.73,4.45,1-1.1,1.39-3.58.73-4.45Z"/><path class="cls-10" d="M265.7,122.64c1.79,0,4.67,2.16,6.46,4.08-2.37-.83-6.82-2.92-6.46-4.08Z"/><path class="cls-3" d="M241.54,94c.41.91,3.87,1,6.78,1.36-1.38-1-6.09-2.43-6.78-1.36Z"/><path class="cls-3" d="M244.81,96.36c.88.45,1.61.69,3.45-1-1.73,0-3.17.28-3.45,1Z"/><path class="cls-3" d="M244.77,91.31c0,1,1.19,2.36,3.65,4-.79-1.54-2.57-4.63-3.65-4Z"/><path class="cls-3" d="M247.37,91.78c0,1,.79,2.31,2.6,3.81-.79-1.55-1.53-3.72-2.6-3.81Z"/><path class="cls-3" d="M248.47,96.19c1.06,0,1.35.5,4.15.78-1.77.35-3.41.4-4.15-.78Z"/><path class="cls-3" d="M249.16,89.83c-.12,1,2.06,3,3.61,6.92.12-1.94-1.81-6.23-3.61-6.92Z"/><path class="cls-3" d="M247.15,98.53c.6-.62,2.74-.77,5.47-1.56-1.24,1.15-4.43,3.06-5.47,1.56Z"/><path class="cls-3" d="M251,99.46c-.45-.58,1.87-1.24,1.78-2.71.35,1.45-.13,2.08-1.78,2.71Z"/><path class="cls-3" d="M254.55,94.13c1.26,1,2.12,2.57,2.52,5-1.29-2-3.29-4.38-2.52-5Z"/><path class="cls-3" d="M255.65,92.33c1.34,1,2.45,4.65,1.8,7-.5-2.55-2.46-6.14-1.8-7Z"/><path class="cls-3" d="M250.89,101.39c.91.41,4.86-.32,6.95-1.39-1.74.12-6.44.43-6.95,1.39Z"/><path class="cls-3" d="M259.05,97.42c1.08,1.18,1.66,2.46,1.64,5-.93-2.17-2.51-4.44-1.64-5Z"/><path class="cls-3" d="M263.67,98.63c.28,1.57-.69,2.59-2,4.69.36-2.33,1-4.71,2-4.69Z"/><path class="cls-3" d="M256.16,105c1.53.3,3-.74,4.82-1.9-2.17.28-5,1-4.82,1.9Z"/><path class="cls-3" d="M258.25,105.61c1-.31,1.71,0,4.49-.39-1.63.79-3.46,1.35-4.49.39Z"/><path class="cls-3" d="M263.34,103.24c-.15.85.81,1.89.9,4.43.52-1.39,0-3.84-.9-4.43Z"/><path class="cls-3" d="M259.84,107c1-.25,1.49,1,4.38.87-1.73.77-4,.22-4.38-.87Z"/><path class="cls-3" d="M256.79,108.83c1-1,3.54-.19,7.79.08-1.93,1-6.64,1.16-7.79-.08Z"/><path class="cls-3" d="M267.39,105.25c-1.06.46-2.13,1-2.42,3.5,1.4-1.47,2.72-2.84,2.42-3.5Z"/><path class="cls-3" d="M260.61,113.46c.82-.63,4.21-1.2,6.87,1.18-3.36-1.63-6-.24-6.87-1.18Z"/><path class="cls-3" d="M271.11,107.22c-1.2.61-4.11,3.64-3.3,7.15.42-3.94,3.74-6,3.3-7.15Z"/><path class="cls-3" d="M270.54,110a4.48,4.48,0,0,1-2.77,4.58c2.1-1.76,1.86-4.36,2.77-4.58Z"/><path class="cls-3" d="M272.25,113.14c-.76.37-.66,2.21-2.8,5.21,1.49-.83,3.15-3.56,2.8-5.21Z"/><path class="cls-3" d="M263,117.89c1-.51,4.64-.5,7,2.48-3.24-2.32-6.27-1.35-7-2.48Z"/><path class="cls-3" d="M266.44,115.46c.95.85,1.05,1.38,3.29,3.94-1.76-1.21-3.41-2.4-3.29-3.94Z"/><path class="cls-3" d="M274.39,118c-1.53.29-2.25,1.66-3.52,3.41,1.91-1,4-2.63,3.52-3.41Z"/><path class="cls-3" d="M274.12,121.13c-.69.07-1.07,1.18-2.93,1.87,1.25.14,2.88-.9,2.93-1.87Z"/><path class="cls-3" d="M267.25,121.56c.68.5,1.47-.22,3.49.68-1.13-1.16-3.06-1.53-3.49-.68Z"/><path class="cls-3" d="M266.43,121.19c1.53,0,2.9.59,4.73,1.77-2.17-.49-4.88-1.06-4.73-1.77Z"/><path class="cls-3" d="M277,122.51c-1.86.72-3.09,1.89-4.79,4.23,2.39-1.69,5.27-3.44,4.79-4.23Z"/><path class="cls-3" d="M266.69,126c1.58-.83,3.1,0,5.56.89-2.49.31-5.38.3-5.56-.89Z"/><path class="cls-11" d="M248.51,95.17s11.19,2.12,16,12.35l.08.17c5.16,9.91,9.28,19.16,8.19,22.72a16.16,16.16,0,0,0,0,6.91l-.9.19a19.21,19.21,0,0,1,.27-7.28c1-3.27-2.95-12.45-8.15-22.24l-.08-.17c-4.71-9.91-15.5-12.31-15.53-12.32a.52.52,0,0,1-.65-.35c.32-.29.54-.26.77,0Z"/><path class="cls-10" d="M295.15,97c-.51.87-1.48,1.16-3.44,3.38.56-1.63,2.17-3.54,3.44-3.38Z"/><path class="cls-10" d="M291,96.49c.77.55-.57,2.15.31,4-1-.59-1.4-2.7-.31-4Z"/><path class="cls-10" d="M291.58,102.18c-.74.57-1.67.9-3.8.37,1.6-.26,3.13-1.12,3.8-.37Z"/><path class="cls-10" d="M289.2,105.82c-.68.62-3.47.62-5.63.25,1.57-.38,4.92-1,5.63-.25Z"/><path class="cls-10" d="M284,100.51a4.71,4.71,0,0,0-.43,5.56c-.7-3,1.06-4.74.43-5.56Z"/><path class="cls-10" d="M279.33,104.67c.53.58,0,2.81.8,6.15-1-1.23-1.67-4.83-.8-6.15Z"/><path class="cls-10" d="M281.81,113c-1,.25-1.79,1.79-4.64,3.09a6.58,6.58,0,0,0,4.64-3.09Z"/><path class="cls-10" d="M277.8,111.78c.5,1.37,0,2.49-.81,4.35-.06-2,0-4.35.81-4.35Z"/><path class="cls-10" d="M281.47,112.54c-.68,0-.86.35-2.63.6,1.14.18,2.18.17,2.63-.6Z"/><path class="cls-10" d="M275.07,115.41c.38.7-.15,1.92.55,4.18-.88-1.06-1.19-3.38-.55-4.18Z"/><path class="cls-10" d="M273.27,118.8c.38.7-.15,1.91.55,4.17-.89-1-1.19-3.38-.55-4.17Z"/><path class="cls-10" d="M278.56,124.26c-1.66-.1-4.42,1.87-6.14,3.61,2.23-.71,6.45-2.53,6.14-3.61Z"/><path class="cls-3" d="M302,98.22c-.4.83-3.63.81-6.36,1.07,1.32-.94,5.76-2.09,6.36-1.07Z"/><path class="cls-3" d="M298.84,100.37c-.84.39-1.54.6-3.2-1,1.61.09,3,.35,3.2,1Z"/><path class="cls-3" d="M299,95.66c0,.93-1.18,2.17-3.53,3.59.78-1.42,2.54-4.24,3.53-3.59Z"/><path class="cls-3" d="M296.58,96c0,.93-.81,2.13-2.53,3.48.77-1.42,1.53-3.43,2.53-3.48Z"/><path class="cls-3" d="M295.43,100.1c-1-.07-1.29.42-3.9.61,1.64.38,3.17.47,3.9-.61Z"/><path class="cls-3" d="M295,94.15c.09.9-2,2.72-3.57,6.35-.06-1.82,1.87-5.75,3.57-6.35Z"/><path class="cls-3" d="M296.58,102.32c-.53-.6-2.53-.8-5.05-1.61,1.12,1.1,4,3,5.05,1.61Z"/><path class="cls-3" d="M293,103.08c.43-.53-1.71-1.22-1.58-2.58-.37,1.34.06,1.94,1.58,2.58Z"/><path class="cls-3" d="M289.82,98a7.09,7.09,0,0,0-2.51,4.62c1.26-1.8,3.21-4,2.51-4.62Z"/><path class="cls-3" d="M288.84,96.29c-1.28.9-2.42,4.27-1.88,6.42.54-2.36,2.48-5.65,1.88-6.42Z"/><path class="cls-3" d="M293,104.87c-.86.36-4.52-.44-6.44-1.5,1.62.17,6,.6,6.44,1.5Z"/><path class="cls-3" d="M285.52,100.93a6,6,0,0,0-1.68,4.57c.94-2,2.47-4.06,1.68-4.57Z"/><path class="cls-3" d="M281.18,101.92c-.31,1.46.56,2.44,1.75,4.44-.27-2.18-.81-4.43-1.75-4.44Z"/><path class="cls-3" d="M288,108.05c-1.44.22-2.76-.79-4.43-1.92,2,.31,4.59,1.08,4.43,1.92Z"/><path class="cls-3" d="M286,108.6c-.94-.33-1.59,0-4.17-.5,1.49.78,3.19,1.36,4.17.5Z"/><path class="cls-3" d="M281.35,106.23c.11.8-.82,1.74-1,4.11-.44-1.31.1-3.58,1-4.11Z"/><path class="cls-3" d="M284.49,109.85c-.93-.26-1.41.89-4.11.68,1.6.77,3.7.32,4.11-.68Z"/><path class="cls-3" d="M287.29,111.64c-.91-.93-3.29-.28-7.27-.16,1.77,1,6.16,1.28,7.27.16Z"/><path class="cls-3" d="M277.51,108c1,.46,2,1,2.15,3.34-1.26-1.42-2.44-2.74-2.15-3.34Z"/><path class="cls-3" d="M283.59,115.85c-.75-.61-3.89-1.24-6.45.9,3.19-1.43,5.62-.06,6.45-.9Z"/><path class="cls-3" d="M274,109.72c1.08.59,3.72,3.51,2.85,6.76-.27-3.69-3.31-5.66-2.85-6.76Z"/><path class="cls-3" d="M281.18,119.91c-.9-.51-4.31-.61-6.6,2.1,3.09-2.07,5.88-1.07,6.6-2.1Z"/><path class="cls-11" d="M295.42,99.15s-10.49,1.65-15.33,11l-.08.15c-5.11,9.09-9.23,17.6-8.32,20.95a14.89,14.89,0,0,1-.17,6.44l.83.2a17.71,17.71,0,0,0,0-6.79c-.83-3.07,3.13-11.52,8.27-20.5l.08-.15c4.68-9.11,14.82-11,14.85-11a.48.48,0,0,0,.62-.31c-.29-.28-.5-.26-.72,0Z"/><path class="cls-12" d="M247,107.46c.56.63,1.42.71,3.43,2.22-.72-1.26-2.38-2.57-3.43-2.22Z"/><path class="cls-12" d="M250.42,106.38c-.57.59.82,1.68.36,3.37a2.39,2.39,0,0,0-.36-3.37Z"/><path class="cls-12" d="M250.84,111.18c.71.35,1.55.47,3.27-.33-1.4.05-2.84-.4-3.27.33Z"/><path class="cls-12" d="M253.41,113.79c.67.41,3-.07,4.81-.74-1.39,0-4.32,0-4.81.74Z"/><path class="cls-12" d="M257,108.51a3.88,3.88,0,0,1,1.23,4.54c.13-2.58-1.63-3.75-1.23-4.54Z"/><path class="cls-12" d="M261.6,111.17c-.37.57.45,2.32.27,5.23.66-1.19.66-4.29-.27-5.23Z"/><path class="cls-12" d="M261,118.05c.58-.12.78.14,2.32,0-.93.34-1.82.51-2.32,0Z"/><path class="cls-12" d="M265.28,127.26c1.39-.36,4,.8,5.76,2-2-.2-5.85-1-5.76-2Z"/><path class="cls-13" d="M241.43,109.66c.47.62,3.2.06,5.56-.19-1.26-.55-5.21-.75-5.56.19Z"/><path class="cls-13" d="M244.4,110.91c.77.19,1.39.24,2.56-1.39-1.36.36-2.46.8-2.56,1.39Z"/><path class="cls-13" d="M243.51,107.05c.15.77,1.34,1.59,3.55,2.37-.88-1-2.81-3.08-3.55-2.37Z"/><path class="cls-13" d="M245.64,106.93c.14.77,1,1.63,2.69,2.45-.88-1-1.83-2.57-2.69-2.45Z"/><path class="cls-13" d="M247.25,110.12c.83-.23,1.15.13,3.4-.16-1.34.59-2.61.92-3.4.16Z"/><path class="cls-13" d="M246.72,105.11c.07.76,2.12,1.91,4,4.65-.23-1.52-2.48-4.44-4-4.65Z"/><path class="cls-13" d="M246.61,112.15c.37-.58,2-1.09,4-2.19-.79,1.1-3,3.16-4,2.19Z"/><path class="cls-13" d="M249.79,112.16c-.45-.35,1.26-1.29.93-2.4.53,1,.25,1.62-.93,2.4Z"/><path class="cls-13" d="M251.67,107.42a5.83,5.83,0,0,1,2.84,3.4c-1.34-1.28-3.32-2.76-2.84-3.4Z"/><path class="cls-13" d="M252.24,105.84c1.22.53,2.71,3.13,2.59,5-.83-1.86-3-4.26-2.59-5Z"/><path class="cls-13" d="M250,113.65c.78.16,3.76-1.12,5.21-2.33-1.33.42-5,1.51-5.21,2.33Z"/><path class="cls-13" d="M255.77,109.12a5,5,0,0,1,2.14,3.51c-1.11-1.49-2.73-2.95-2.14-3.51Z"/><path class="cls-13" d="M259.6,109.2c.49,1.16-.09,2.12-.79,4-.11-1.86,0-3.81.79-4Z"/><path class="cls-13" d="M254.77,115.43c1.27-.05,2.23-1.11,3.47-2.34-1.66.61-3.73,1.67-3.47,2.34Z"/><path class="cls-13" d="M256.53,115.56c.75-.43,1.35-.28,3.46-1.12-1.14.9-2.49,1.66-3.46,1.12Z"/><path class="cls-13" d="M260.12,112.81c0,.68,1,1.3,1.47,3.23.18-1.16-.64-3-1.47-3.23Z"/><path class="cls-13" d="M258,116.34c.75-.38,1.34.49,3.59-.14-1.24.92-3.08.89-3.59.14Z"/><path class="cls-13" d="M255.94,118.29c.62-.92,2.74-.79,6.13-1.36-1.36,1.09-5,2.11-6.13,1.36Z"/><path class="cls-13" d="M259.72,121.15a5.16,5.16,0,0,1,5.6-.35c-2.92-.64-4.77.91-5.6.35Z"/><path class="cls-13" d="M266.94,116.69a3.58,3.58,0,0,1-1.4,4c1.36-1.74.72-3.69,1.4-4Z"/><path class="cls-13" d="M262.39,124.1a5.43,5.43,0,0,1,5.91.62c-2.93-1.18-5.14.11-5.91-.62Z"/><path class="cls-13" d="M264.64,121.61c.89.49,1.06.87,3.25,2.43-1.58-.61-3.08-1.22-3.25-2.43Z"/><path class="cls-13" d="M271.64,124.55c-.53.19-.64,1.11-2,2,1-.12,2.11-1.22,2-2Z"/><path class="cls-13" d="M265.6,126a6.73,6.73,0,0,1,4,.5c-1.78,0-4,.08-4-.5Z"/><path class="cls-13" d="M274.1,125.1c-1.33.89-2.09,2-3,4.12,1.59-1.73,3.55-3.61,3-4.12Z"/><path class="cls-13" d="M266.62,129.63c1.1-.93,2.43-.61,4.52-.34-1.9.69-4.17,1.21-4.52.34Z"/><path class="cls-14" d="M247.11,109.33s9.15-.42,14.7,6.54l.08.11c5.75,6.66,10.55,13,10.29,15.94a12.29,12.29,0,0,0,1.15,5.3l-.67.31a14.72,14.72,0,0,1-1-5.63c.23-2.68-4.43-9-10.18-15.57l-.09-.11c-5.38-6.75-14.26-6.62-14.29-6.62a.41.41,0,0,1-.57-.15c.2-.28.38-.3.61-.12Z"/></g><path class="cls-15" d="M131.48,182.88h3.27v2.66h-9.39v-2.66h3.27V159.09h-3.27v-2.57h11.1c2.74,0,4.94.25,7,1.68a9.26,9.26,0,0,1,3.75,7.55c0,4.4-2.93,8.16-7,8.44l5.42,8.69h3.27v2.66h-5.06l-8.61-14h2.73c3.76,0,6.2-2.45,6.2-5.75,0-4-2.44-6.41-7.3-6.41h-5.35Z"/><path class="cls-15" d="M165.85,160.16A14.08,14.08,0,0,1,176.09,156a14.29,14.29,0,0,1,10.41,4.25A14.57,14.57,0,0,1,191,170.85a14.73,14.73,0,0,1-3.84,10.36,14.47,14.47,0,0,1-11.06,4.9c-8.32,0-14.73-6.61-14.73-15.26A14.83,14.83,0,0,1,165.85,160.16Zm10.4,23.21c6.53,0,11.76-5.42,11.76-12.56a12.08,12.08,0,0,0-12-12.08,11.24,11.24,0,0,0-7.3,2.69,12.73,12.73,0,0,0-4.45,9.47C164.3,178.07,169.6,183.37,176.25,183.37Z"/><path class="cls-15" d="M220.58,164h-2.29c-1-3.63-2.77-5.43-5.47-5.43a5,5,0,0,0-5.06,5.35,4.69,4.69,0,0,0,1.23,3.34c1.43,1.51,3.83,1.72,6.2,2.37,4.45,1.23,6.81,4,6.81,7.88,0,5.26-3.71,8.69-8.24,8.69-2.73,0-5-.9-6.2-2.49v1.88h-2.45v-8h2.45c.2,4,2.37,6.12,6,6.12s5.83-2.37,5.83-6c0-2.53-1.59-4.41-4.61-5.35-2.32-.73-4.94-.93-7.1-2.61a6.54,6.54,0,0,1-2.61-5.47c0-4.89,3.35-8.16,7.88-8.16a7.17,7.17,0,0,1,5.38,2.41v-1.88h2.29Z"/><path class="cls-15" d="M256.17,178.27v7.27h-20v-2.66h3.27V159.09h-3.27v-2.57h20v7.31h-2.66v-4.45H242.29v10.16h11.35v2.86H242.29v10.32h11.22v-4.45Z"/><path class="cls-15" d="M286.37,185.54,276,159.14v23.74h3.55v2.66h-9.38v-2.66h3.26V159.09h-3.26v-2.57h7.75l9.79,25.26,9.92-25.26h7.67v2.57H302v23.79h3.26v2.66h-9.34v-2.66h3.42v-23.7L289,185.54Z"/><path class="cls-15" d="M325.63,182.88v2.66h-9.38v-2.66h3.26l9.26-23.79h-3.26v-2.57h7.67l10.16,26.36h3.27v2.66h-9.35v-2.66h2.94l-2.45-6.44H325.1l-2.45,6.44Zm5.76-23-5.19,13.75h10.41Z"/><path class="cls-15" d="M363.67,182.88h3.26v2.66h-9.38v-2.66h3.26V159.09h-3.26v-2.57h11.1c2.73,0,4.94.25,7,1.68a9.29,9.29,0,0,1,3.75,7.55c0,4.4-2.94,8.16-7,8.44l5.43,8.69h3.26v2.66H376l-8.61-14h2.74c3.75,0,6.2-2.45,6.2-5.75,0-4-2.45-6.41-7.3-6.41h-5.35Z"/><path class="cls-15" d="M406.09,159.09v-2.57h8.69v2.57h-3l-8,15.8v8H407v2.66h-9.34v-2.66H401v-8l-8-15.76h-3v-2.57h8.7v2.57h-2.49l6.2,12.49,6.16-12.49Z"/><path class="cls-15" d="M167,205.5h2.57v7.3h-2c-2.85-3.5-5.87-5.06-9.87-5.06A12,12,0,0,0,146,219.86c0,7.19,5.42,12.49,11.75,12.49a11.3,11.3,0,0,0,9.63-5h3.51c-3.35,5.35-7.39,7.76-13.14,7.76-8.28,0-14.73-6.57-14.73-15.27a14.75,14.75,0,0,1,4.53-10.69,14,14,0,0,1,10.24-4.2A15,15,0,0,1,167,208Z"/><path class="cls-15" d="M188.19,209.13a14.11,14.11,0,0,1,10.24-4.2,14.33,14.33,0,0,1,10.41,4.24,14.58,14.58,0,0,1,4.44,10.65,14.75,14.75,0,0,1-3.83,10.37,14.52,14.52,0,0,1-11.06,4.9c-8.33,0-14.73-6.62-14.73-15.27A14.85,14.85,0,0,1,188.19,209.13Zm10.4,23.22c6.53,0,11.75-5.43,11.75-12.57a12.08,12.08,0,0,0-12-12.08,11.22,11.22,0,0,0-7.31,2.7,12.72,12.72,0,0,0-4.44,9.46C186.64,227.05,191.94,232.35,198.59,232.35Z"/><path class="cls-15" d="M232.39,231.86h3.26v-23.5h-6.08v4.44h-2.65v-7.3h20.36v7.3h-2.65v-4.44h-6.16v23.5h3.26v2.65h-9.34Z"/><path class="cls-15" d="M266.08,231.86h3.26v-23.5h-6.08v4.44h-2.65v-7.3H281v7.3h-2.65v-4.44h-6.16v23.5h3.26v2.65h-9.34Z"/><path class="cls-15" d="M299,231.86v2.65h-9.39v-2.65h3.26l9.27-23.79H298.9V205.5h7.68l10.16,26.36H320v2.65h-9.34v-2.65h2.93l-2.44-6.45H298.5l-2.45,6.45Zm5.75-23.05-5.18,13.75H310Z"/><path class="cls-15" d="M345.35,235.09c-8.45,0-14.81-6.62-14.81-15.27a14.78,14.78,0,0,1,4.52-10.69,14.25,14.25,0,0,1,10.66-4.2,13.78,13.78,0,0,1,8.81,3V205.5h2.53v7.3h-2c-2.69-3.42-5.71-5.1-9.63-5.1a12,12,0,0,0-12,12.16c0,7.23,5.31,12.49,12,12.49a11.68,11.68,0,0,0,11.26-9.18H342.08V220.6h17.31v13.91h-2.57v-4.73A14.59,14.59,0,0,1,345.35,235.09Z"/><path class="cls-15" d="M393.51,227.25v7.26h-20v-2.65h3.27V208.07h-3.27V205.5h20v7.3h-2.66v-4.44H379.63v10.16H391v2.85H379.63V231.7h11.22v-4.45Z"/><rect class="cls-2" x="155.24" y="101.91" width="56.97" height="1.19"/><rect class="cls-2" x="323.59" y="101.91" width="56.97" height="1.19"/><path class="cls-2" d="M378.86,102.51a2,2,0,1,1,2,2A2,2,0,0,1,378.86,102.51Z"/></svg>