<svg width="222" height="35" viewBox="0 0 222 35" fill="none" xmlns="http://www.w3.org/2000/svg">
<path d="M147.309 14.9574C147.707 14.4495 148.222 14.0721 148.853 13.825C149.498 13.5642 150.233 13.4338 151.056 13.4338V16.9544C150.699 16.9132 150.404 16.8926 150.171 16.8926C149.333 16.8926 148.675 17.1191 148.194 17.5721C147.728 18.025 147.494 18.7181 147.494 19.6515V24.7779H143.583V13.6191H147.309V14.9574Z" fill="#2B333B"/>
<path d="M135.47 24.9632C134.276 24.9632 133.199 24.7162 132.238 24.2221C131.277 23.7279 130.522 23.0417 129.973 22.1632C129.438 21.2848 129.17 20.2897 129.17 19.1779C129.17 18.0799 129.438 17.0917 129.973 16.2132C130.522 15.3348 131.27 14.6554 132.217 14.175C133.178 13.6809 134.263 13.4338 135.47 13.4338C136.678 13.4338 137.763 13.6809 138.723 14.175C139.684 14.6554 140.432 15.3348 140.967 16.2132C141.503 17.0779 141.77 18.0662 141.77 19.1779C141.77 20.2897 141.503 21.2848 140.967 22.1632C140.432 23.0417 139.684 23.7279 138.723 24.2221C137.763 24.7162 136.678 24.9632 135.47 24.9632ZM135.47 21.8544C136.157 21.8544 136.719 21.6211 137.159 21.1544C137.598 20.674 137.817 20.0152 137.817 19.1779C137.817 18.3544 137.598 17.7093 137.159 17.2426C136.719 16.776 136.157 16.5426 135.47 16.5426C134.784 16.5426 134.221 16.776 133.782 17.2426C133.343 17.7093 133.123 18.3544 133.123 19.1779C133.123 20.0152 133.343 20.674 133.782 21.1544C134.221 21.6211 134.784 21.8544 135.47 21.8544Z" fill="#2B333B"/>
<path d="M122.667 24.9632C121.734 24.9632 120.814 24.8603 119.908 24.6544C119.002 24.4348 118.275 24.1534 117.726 23.8103L118.899 21.1338C119.407 21.4495 120.011 21.7034 120.711 21.8956C121.411 22.074 122.104 22.1632 122.791 22.1632C123.422 22.1632 123.868 22.1015 124.129 21.9779C124.403 21.8407 124.541 21.6485 124.541 21.4015C124.541 21.1544 124.376 20.9828 124.047 20.8868C123.731 20.777 123.223 20.674 122.523 20.5779C121.631 20.4681 120.869 20.324 120.238 20.1456C119.62 19.9672 119.085 19.6377 118.632 19.1574C118.179 18.677 117.952 18.0044 117.952 17.1397C117.952 16.426 118.165 15.7946 118.591 15.2456C119.016 14.6828 119.634 14.2436 120.444 13.9279C121.267 13.5985 122.248 13.4338 123.388 13.4338C124.198 13.4338 125 13.5162 125.797 13.6809C126.593 13.8456 127.258 14.0789 127.794 14.3809L126.62 17.0368C125.632 16.4877 124.561 16.2132 123.408 16.2132C122.791 16.2132 122.338 16.2887 122.049 16.4397C121.761 16.577 121.617 16.7623 121.617 16.9956C121.617 17.2564 121.775 17.4417 122.091 17.5515C122.406 17.6475 122.928 17.7505 123.655 17.8603C124.575 17.9975 125.337 18.1554 125.941 18.3338C126.545 18.5123 127.066 18.8417 127.505 19.3221C127.958 19.7887 128.185 20.4475 128.185 21.2985C128.185 21.9985 127.972 22.6299 127.547 23.1926C127.121 23.7417 126.49 24.174 125.652 24.4897C124.829 24.8054 123.834 24.9632 122.667 24.9632Z" fill="#2B333B"/>
<path d="M111.408 24.9632C110.475 24.9632 109.555 24.8603 108.649 24.6544C107.743 24.4348 107.016 24.1534 106.467 23.8103L107.64 21.1338C108.148 21.4495 108.752 21.7034 109.452 21.8956C110.152 22.074 110.845 22.1632 111.531 22.1632C112.163 22.1632 112.609 22.1015 112.87 21.9779C113.144 21.8407 113.281 21.6485 113.281 21.4015C113.281 21.1544 113.117 20.9828 112.787 20.8868C112.472 20.777 111.964 20.674 111.264 20.5779C110.372 20.4681 109.61 20.324 108.979 20.1456C108.361 19.9672 107.826 19.6377 107.373 19.1574C106.92 18.677 106.693 18.0044 106.693 17.1397C106.693 16.426 106.906 15.7946 107.331 15.2456C107.757 14.6828 108.375 14.2436 109.184 13.9279C110.008 13.5985 110.989 13.4338 112.129 13.4338C112.938 13.4338 113.741 13.5162 114.537 13.6809C115.333 13.8456 115.999 14.0789 116.534 14.3809L115.361 17.0368C114.373 16.4877 113.302 16.2132 112.149 16.2132C111.531 16.2132 111.079 16.2887 110.79 16.4397C110.502 16.577 110.358 16.7623 110.358 16.9956C110.358 17.2564 110.516 17.4417 110.831 17.5515C111.147 17.6475 111.669 17.7505 112.396 17.8603C113.316 17.9975 114.078 18.1554 114.681 18.3338C115.285 18.5123 115.807 18.8417 116.246 19.3221C116.699 19.7887 116.926 20.4475 116.926 21.2985C116.926 21.9985 116.713 22.6299 116.287 23.1926C115.862 23.7417 115.23 24.174 114.393 24.4897C113.57 24.8054 112.575 24.9632 111.408 24.9632Z" fill="#2B333B"/>
<path d="M100.113 21.9779C100.648 21.9779 101.108 21.9025 101.493 21.7515C101.891 21.6005 102.289 21.3534 102.687 21.0103L104.725 23.1515C103.668 24.3593 102.09 24.9632 99.9897 24.9632C98.6857 24.9632 97.5397 24.7162 96.5514 24.2221C95.5632 23.7279 94.7946 23.0417 94.2455 22.1632C93.7102 21.2848 93.4426 20.2897 93.4426 19.1779C93.4426 18.0799 93.7102 17.0985 94.2455 16.2338C94.7808 15.3554 95.5152 14.6691 96.4485 14.175C97.3955 13.6809 98.4524 13.4338 99.6191 13.4338C100.703 13.4338 101.692 13.6603 102.584 14.1132C103.49 14.5525 104.21 15.2044 104.746 16.0691C105.281 16.9201 105.548 17.9358 105.548 19.1162L97.5808 20.6397C98.0063 21.5319 98.8504 21.9779 100.113 21.9779ZM99.6397 16.2132C98.9671 16.2132 98.4181 16.426 97.9926 16.8515C97.5671 17.2632 97.3269 17.8603 97.272 18.6426L101.801 17.7574C101.664 17.2907 101.403 16.9201 101.019 16.6456C100.635 16.3574 100.175 16.2132 99.6397 16.2132Z" fill="#2B333B"/>
<path d="M87.561 24.9632C86.3257 24.9632 85.2208 24.7162 84.2463 24.2221C83.2717 23.7279 82.51 23.0417 81.961 22.1632C81.4257 21.2848 81.158 20.2897 81.158 19.1779C81.158 18.0662 81.4257 17.0779 81.961 16.2132C82.51 15.3348 83.2717 14.6554 84.2463 14.175C85.2208 13.6809 86.3257 13.4338 87.561 13.4338C88.8237 13.4338 89.9149 13.7083 90.8345 14.2574C91.7541 14.7926 92.4061 15.5407 92.7904 16.5015L89.7639 18.0456C89.2561 17.0436 88.5149 16.5426 87.5404 16.5426C86.8404 16.5426 86.257 16.776 85.7904 17.2426C85.3374 17.7093 85.111 18.3544 85.111 19.1779C85.111 20.0152 85.3374 20.674 85.7904 21.1544C86.257 21.6211 86.8404 21.8544 87.5404 21.8544C88.5149 21.8544 89.2561 21.3534 89.7639 20.3515L92.7904 21.8956C92.4061 22.8564 91.7541 23.6113 90.8345 24.1603C89.9149 24.6956 88.8237 24.9632 87.561 24.9632Z" fill="#2B333B"/>
<path d="M73.7459 24.9632C72.5518 24.9632 71.4744 24.7162 70.5136 24.2221C69.5528 23.7279 68.7979 23.0417 68.2489 22.1632C67.7136 21.2848 67.4459 20.2897 67.4459 19.1779C67.4459 18.0799 67.7136 17.0917 68.2489 16.2132C68.7979 15.3348 69.5459 14.6554 70.493 14.175C71.4538 13.6809 72.5381 13.4338 73.7459 13.4338C74.9538 13.4338 76.0381 13.6809 76.9989 14.175C77.9597 14.6554 78.7077 15.3348 79.243 16.2132C79.7783 17.0779 80.0459 18.0662 80.0459 19.1779C80.0459 20.2897 79.7783 21.2848 79.243 22.1632C78.7077 23.0417 77.9597 23.7279 76.9989 24.2221C76.0381 24.7162 74.9538 24.9632 73.7459 24.9632ZM73.7459 21.8544C74.4322 21.8544 74.995 21.6211 75.4342 21.1544C75.8734 20.674 76.093 20.0152 76.093 19.1779C76.093 18.3544 75.8734 17.7093 75.4342 17.2426C74.995 16.776 74.4322 16.5426 73.7459 16.5426C73.0597 16.5426 72.4969 16.776 72.0577 17.2426C71.6185 17.7093 71.3989 18.3544 71.3989 19.1779C71.3989 20.0152 71.6185 20.674 72.0577 21.1544C72.4969 21.6211 73.0597 21.8544 73.7459 21.8544Z" fill="#2B333B"/>
<path d="M62.8852 14.9574C63.2832 14.4495 63.7979 14.0721 64.4293 13.825C65.0744 13.5642 65.8087 13.4338 66.6322 13.4338V16.9544C66.2754 16.9132 65.9803 16.8926 65.7469 16.8926C64.9097 16.8926 64.2508 17.1191 63.7705 17.5721C63.3038 18.025 63.0705 18.7181 63.0705 19.6515V24.7779H59.1587V13.6191H62.8852V14.9574Z" fill="#2B333B"/>
<path d="M50.8529 10.3662C52.1569 10.3662 53.2892 10.5858 54.25 11.025C55.2108 11.4505 55.952 12.0681 56.4735 12.8779C56.9951 13.674 57.2559 14.6142 57.2559 15.6985C57.2559 16.7828 56.9951 17.723 56.4735 18.5191C55.952 19.3152 55.2108 19.9328 54.25 20.3721C53.2892 20.7975 52.1569 21.0103 50.8529 21.0103H48.3412V24.7779H44.2647V13.4544C44.2647 11.7488 45.6474 10.3662 47.3529 10.3662H50.8529ZM50.6059 17.7985C51.4431 17.7985 52.0745 17.6201 52.5 17.2632C52.9255 16.8926 53.1382 16.3711 53.1382 15.6985C53.1382 15.026 52.9255 14.5044 52.5 14.1338C52.0745 13.7632 51.4431 13.5779 50.6059 13.5779H49.3706C48.8021 13.5779 48.3412 14.0388 48.3412 14.6074V17.7985H50.6059Z" fill="#2B333B"/>
<path d="M216.282 23.2647C217.586 23.2647 218.636 22.8255 219.432 21.9471L220.503 23.2235C220.023 23.8 219.412 24.2392 218.671 24.5412C217.943 24.8431 217.126 24.9941 216.221 24.9941C215.068 24.9941 214.045 24.7608 213.153 24.2941C212.261 23.8137 211.568 23.148 211.073 22.2971C210.593 21.4461 210.353 20.4853 210.353 19.4147C210.353 18.3578 210.586 17.4039 211.053 16.5529C211.533 15.702 212.185 15.0431 213.009 14.5765C213.846 14.0961 214.786 13.8559 215.829 13.8559C216.818 13.8559 217.717 14.0824 218.526 14.5353C219.336 14.9745 219.981 15.599 220.462 16.4088C220.942 17.2186 221.189 18.152 221.203 19.2088L212.535 20.8971C212.81 21.652 213.27 22.2353 213.915 22.6471C214.573 23.0588 215.363 23.2647 216.282 23.2647ZM215.829 15.5235C215.143 15.5235 214.525 15.6814 213.976 15.9971C213.441 16.3127 213.023 16.7588 212.721 17.3353C212.419 17.898 212.268 18.5569 212.268 19.3118V19.5176L219.247 18.2C219.069 17.4039 218.671 16.7588 218.053 16.2647C217.435 15.7706 216.694 15.5235 215.829 15.5235Z" fill="#2B333B"/>
<path d="M205.053 15.7912C205.396 15.1598 205.904 14.6794 206.576 14.35C207.249 14.0206 208.065 13.8559 209.026 13.8559V15.7706C208.916 15.7569 208.765 15.75 208.573 15.75C207.503 15.75 206.659 16.0725 206.041 16.7176C205.437 17.349 205.135 18.2549 205.135 19.4353V24.8706H203.159V13.9588H205.053V15.7912Z" fill="#2B333B"/>
<path d="M200.78 24.2324C200.492 24.4794 200.135 24.6716 199.709 24.8088C199.284 24.9324 198.845 24.9941 198.392 24.9941C197.294 24.9941 196.443 24.699 195.839 24.1088C195.235 23.5186 194.933 22.6745 194.933 21.5765V11.5706H196.909V13.9588H200.039V15.5853H196.909V21.4941C196.909 22.0843 197.054 22.5373 197.342 22.8529C197.644 23.1686 198.069 23.3265 198.618 23.3265C199.222 23.3265 199.737 23.1549 200.162 22.8118L200.78 24.2324Z" fill="#2B333B"/>
<path d="M186.849 13.8559C188.235 13.8559 189.333 14.2608 190.143 15.0706C190.966 15.8667 191.378 17.0402 191.378 18.5912V24.8706H189.402V18.8176C189.402 17.7608 189.148 16.9647 188.64 16.4294C188.132 15.8941 187.405 15.6265 186.458 15.6265C185.387 15.6265 184.543 15.9422 183.925 16.5735C183.308 17.1912 182.999 18.0833 182.999 19.25V24.8706H181.022V13.9588H182.916V15.6059C183.314 15.0431 183.85 14.6108 184.522 14.3088C185.209 14.0069 185.984 13.8559 186.849 13.8559Z" fill="#2B333B"/>
<path d="M173.337 23.2647C174.64 23.2647 175.69 22.8255 176.487 21.9471L177.557 23.2235C177.077 23.8 176.466 24.2392 175.725 24.5412C174.997 24.8431 174.181 24.9941 173.275 24.9941C172.122 24.9941 171.099 24.7608 170.207 24.2941C169.315 23.8137 168.622 23.148 168.128 22.2971C167.647 21.4461 167.407 20.4853 167.407 19.4147C167.407 18.3578 167.64 17.4039 168.107 16.5529C168.588 15.702 169.239 15.0431 170.063 14.5765C170.9 14.0961 171.84 13.8559 172.884 13.8559C173.872 13.8559 174.771 14.0824 175.581 14.5353C176.39 14.9745 177.036 15.599 177.516 16.4088C177.996 17.2186 178.243 18.152 178.257 19.2088L169.589 20.8971C169.864 21.652 170.324 22.2353 170.969 22.6471C171.628 23.0588 172.417 23.2647 173.337 23.2647ZM172.884 15.5235C172.197 15.5235 171.58 15.6814 171.031 15.9971C170.495 16.3127 170.077 16.7588 169.775 17.3353C169.473 17.898 169.322 18.5569 169.322 19.3118V19.5176L176.301 18.2C176.123 17.4039 175.725 16.7588 175.107 16.2647C174.489 15.7706 173.748 15.5235 172.884 15.5235Z" fill="#2B333B"/>
<path d="M160.733 25.0353C159.291 25.0353 157.987 24.7196 156.821 24.0882C155.668 23.4431 154.762 22.5647 154.103 21.4529C153.444 20.3275 153.115 19.0647 153.115 17.6647C153.115 16.2647 153.444 15.0088 154.103 13.8971C154.762 12.7716 155.675 11.8931 156.841 11.2618C158.008 10.6167 159.312 10.2941 160.753 10.2941C161.879 10.2941 162.908 10.4863 163.841 10.8706C164.775 11.2412 165.571 11.7971 166.23 12.5382L164.891 13.8353C163.807 12.6961 162.455 12.1265 160.835 12.1265C159.765 12.1265 158.797 12.3667 157.933 12.8471C157.068 13.3275 156.388 13.9931 155.894 14.8441C155.414 15.6814 155.174 16.6216 155.174 17.6647C155.174 18.7078 155.414 19.6549 155.894 20.5059C156.388 21.3431 157.068 22.002 157.933 22.4824C158.797 22.9627 159.765 23.2029 160.835 23.2029C162.441 23.2029 163.793 22.6265 164.891 21.4735L166.23 22.7706C165.571 23.5118 164.768 24.0745 163.821 24.4588C162.887 24.8431 161.858 25.0353 160.733 25.0353Z" fill="#2B333B"/>
<path fill-rule="evenodd" clip-rule="evenodd" d="M26.3529 3.33333H6.58824C3.8593 3.33333 1.64706 5.57191 1.64706 8.33333V21.6667C1.64706 24.4281 3.8593 26.6667 6.58823 26.6667H26.3529C29.0819 26.6667 31.2941 24.4281 31.2941 21.6667V8.33333C31.2941 5.57191 29.0819 3.33333 26.3529 3.33333ZM6.58824 1.66667C2.94965 1.66667 0 4.65144 0 8.33333V21.6667C0 25.3486 2.94965 28.3333 6.58823 28.3333H26.3529C29.9915 28.3333 32.9412 25.3486 32.9412 21.6667V8.33333C32.9412 4.65144 29.9915 1.66667 26.3529 1.66667H6.58824Z" fill="#2B333B"/>
<path d="M6.58824 34.1667C6.58824 33.7064 6.95694 33.3333 7.41177 33.3333H25.5294C25.9842 33.3333 26.3529 33.7064 26.3529 34.1667C26.3529 34.6269 25.9842 35 25.5294 35H7.41177C6.95694 35 6.58824 34.6269 6.58824 34.1667Z" fill="#2B333B"/>
<path d="M13.1765 28.3333H19.7647V33.3333H13.1765V28.3333Z" fill="#2B333B"/>
<path fill-rule="evenodd" clip-rule="evenodd" d="M13.3412 22.6667C15.6153 22.6667 17.4588 20.8012 17.4588 18.5C17.4588 16.1988 15.6153 14.3333 13.3412 14.3333C11.0671 14.3333 9.22353 16.1988 9.22353 18.5C9.22353 20.8012 11.0671 22.6667 13.3412 22.6667ZM14.4 18.619C15.0497 18.619 15.5764 18.0861 15.5764 17.4286C15.5764 16.7711 15.0497 16.2381 14.4 16.2381C13.7502 16.2381 13.2235 16.7711 13.2235 17.4286C13.2235 18.0861 13.7502 18.619 14.4 18.619Z" fill="#2B333B"/>
<path fill-rule="evenodd" clip-rule="evenodd" d="M23.2235 22.6667C25.4976 22.6667 27.3412 20.8012 27.3412 18.5C27.3412 16.1988 25.4976 14.3333 23.2235 14.3333C20.9494 14.3333 19.1059 16.1988 19.1059 18.5C19.1059 20.8012 20.9494 22.6667 23.2235 22.6667ZM22.1647 18.619C22.8144 18.619 23.3412 18.0861 23.3412 17.4286C23.3412 16.7711 22.8144 16.2381 22.1647 16.2381C21.515 16.2381 20.9882 16.7711 20.9882 17.4286C20.9882 18.0861 21.515 18.619 22.1647 18.619Z" fill="#2B333B"/>
<path d="M13.1765 1.66667C13.1765 0.746192 13.9139 0 14.8235 0H18.1176C19.0273 0 19.7647 0.746192 19.7647 1.66667H13.1765Z" fill="#2B333B"/>
</svg>
